<mxfile host="app.diagrams.net" modified="2021-12-01T10:01:53.593Z" agent="5.0 (Windows NT 10.0; Win64; x64) AppleWebKit/537.36 (KHTML, like Gecko) Chrome/96.0.4664.55 Safari/537.36 Edg/96.0.1054.34" etag="4GwWFij93qjqLyE8tjaR" version="15.8.7" type="github">
  <diagram id="3WJZKibrcdt5Qiwu93-j" name="Page-1">
    <mxGraphModel dx="1038" dy="583" grid="1" gridSize="10" guides="1" tooltips="1" connect="1" arrows="1" fold="1" page="1" pageScale="1" pageWidth="827" pageHeight="1169" math="0" shadow="0">
      <root>
        <mxCell id="0" />
        <mxCell id="1" parent="0" />
        <mxCell id="ehM88T6BFV5h9qxpv1sW-13" value="" style="rounded=1;whiteSpace=wrap;html=1;fontSize=16;fillColor=none;dashed=1;" vertex="1" parent="1">
          <mxGeometry x="485" y="190" width="294" height="100" as="geometry" />
        </mxCell>
        <mxCell id="ehM88T6BFV5h9qxpv1sW-11" value="" style="rounded=1;whiteSpace=wrap;html=1;fontSize=16;fillColor=none;dashed=1;" vertex="1" parent="1">
          <mxGeometry x="30" y="190" width="280" height="100" as="geometry" />
        </mxCell>
        <mxCell id="ehM88T6BFV5h9qxpv1sW-6" style="edgeStyle=orthogonalEdgeStyle;rounded=0;orthogonalLoop=1;jettySize=auto;html=1;entryX=0;entryY=0.5;entryDx=0;entryDy=0;fontSize=16;" edge="1" parent="1" source="ehM88T6BFV5h9qxpv1sW-4" target="ehM88T6BFV5h9qxpv1sW-5">
          <mxGeometry relative="1" as="geometry" />
        </mxCell>
        <mxCell id="ehM88T6BFV5h9qxpv1sW-4" value="&lt;font style=&quot;font-size: 16px&quot;&gt;receive rpc&lt;/font&gt;" style="rounded=1;whiteSpace=wrap;html=1;" vertex="1" parent="1">
          <mxGeometry x="40" y="230" width="100" height="40" as="geometry" />
        </mxCell>
        <mxCell id="ehM88T6BFV5h9qxpv1sW-16" style="edgeStyle=orthogonalEdgeStyle;rounded=0;orthogonalLoop=1;jettySize=auto;html=1;entryX=0;entryY=0.5;entryDx=0;entryDy=0;fontSize=16;" edge="1" parent="1" source="ehM88T6BFV5h9qxpv1sW-5" target="ehM88T6BFV5h9qxpv1sW-15">
          <mxGeometry relative="1" as="geometry" />
        </mxCell>
        <mxCell id="ehM88T6BFV5h9qxpv1sW-5" value="&lt;span style=&quot;font-size: 16px&quot;&gt;parse to protobuf obj&lt;/span&gt;" style="rounded=1;whiteSpace=wrap;html=1;" vertex="1" parent="1">
          <mxGeometry x="180" y="230" width="116" height="40" as="geometry" />
        </mxCell>
        <mxCell id="ehM88T6BFV5h9qxpv1sW-9" style="edgeStyle=orthogonalEdgeStyle;rounded=0;orthogonalLoop=1;jettySize=auto;html=1;fontSize=16;" edge="1" parent="1" source="ehM88T6BFV5h9qxpv1sW-7" target="ehM88T6BFV5h9qxpv1sW-8">
          <mxGeometry relative="1" as="geometry" />
        </mxCell>
        <mxCell id="ehM88T6BFV5h9qxpv1sW-7" value="&lt;span style=&quot;font-size: 16px&quot;&gt;on rpc call&lt;/span&gt;" style="rounded=1;whiteSpace=wrap;html=1;" vertex="1" parent="1">
          <mxGeometry x="499" y="230" width="116" height="40" as="geometry" />
        </mxCell>
        <mxCell id="ehM88T6BFV5h9qxpv1sW-8" value="&lt;span style=&quot;font-size: 16px&quot;&gt;handle rpc&lt;/span&gt;" style="rounded=1;whiteSpace=wrap;html=1;" vertex="1" parent="1">
          <mxGeometry x="649" y="230" width="116" height="40" as="geometry" />
        </mxCell>
        <mxCell id="ehM88T6BFV5h9qxpv1sW-12" value="rpc thread" style="text;html=1;resizable=0;autosize=1;align=center;verticalAlign=middle;points=[];fillColor=none;strokeColor=none;rounded=0;dashed=1;fontSize=16;" vertex="1" parent="1">
          <mxGeometry x="30" y="190" width="90" height="20" as="geometry" />
        </mxCell>
        <mxCell id="ehM88T6BFV5h9qxpv1sW-14" value="main thread" style="text;html=1;resizable=0;autosize=1;align=center;verticalAlign=middle;points=[];fillColor=none;strokeColor=none;rounded=0;dashed=1;fontSize=16;" vertex="1" parent="1">
          <mxGeometry x="480" y="190" width="100" height="20" as="geometry" />
        </mxCell>
        <mxCell id="ehM88T6BFV5h9qxpv1sW-17" style="edgeStyle=orthogonalEdgeStyle;rounded=0;orthogonalLoop=1;jettySize=auto;html=1;fontSize=16;" edge="1" parent="1" source="ehM88T6BFV5h9qxpv1sW-15" target="ehM88T6BFV5h9qxpv1sW-7">
          <mxGeometry relative="1" as="geometry" />
        </mxCell>
        <mxCell id="ehM88T6BFV5h9qxpv1sW-15" value="&lt;span style=&quot;font-size: 16px&quot;&gt;queue&lt;/span&gt;" style="rounded=1;whiteSpace=wrap;html=1;" vertex="1" parent="1">
          <mxGeometry x="350" y="235" width="80" height="30" as="geometry" />
        </mxCell>
        <mxCell id="ehM88T6BFV5h9qxpv1sW-18" value="Post to Main Thread" style="text;html=1;resizable=0;autosize=1;align=center;verticalAlign=middle;points=[];fillColor=none;strokeColor=none;rounded=0;dashed=1;fontSize=16;" vertex="1" parent="1">
          <mxGeometry x="310" y="210" width="160" height="20" as="geometry" />
        </mxCell>
      </root>
    </mxGraphModel>
  </diagram>
</mxfile>
